<?xml version="1.0" encoding="UTF-8" standalone="no"?>
<!-- Created with Inkscape (http://www.inkscape.org/) -->

<svg
   xmlns:dc="http://purl.org/dc/elements/1.1/"
   xmlns:cc="http://creativecommons.org/ns#"
   xmlns:rdf="http://www.w3.org/1999/02/22-rdf-syntax-ns#"
   xmlns:svg="http://www.w3.org/2000/svg"
   xmlns="http://www.w3.org/2000/svg"
   xmlns:xlink="http://www.w3.org/1999/xlink"
   xmlns:sodipodi="http://sodipodi.sourceforge.net/DTD/sodipodi-0.dtd"
   xmlns:inkscape="http://www.inkscape.org/namespaces/inkscape"
   width="740mm"
   height="740mm"
   viewBox="0 0 740 740"
   id="svg5598"
   version="1.1"
   inkscape:version="0.91 r13725"
   sodipodi:docname="icon.svg"
   inkscape:export-filename="/Users/jamesjwood/git/Classfitter/ClassfitterArtwork/icon.png"
   inkscape:export-xdpi="90"
   inkscape:export-ydpi="90">
  <defs
     id="defs5600">
    <linearGradient
       inkscape:collect="always"
       id="linearGradient6237">
      <stop
         style="stop-color:#00ff00;stop-opacity:1"
         offset="0"
         id="stop6239" />
      <stop
         style="stop-color:#00ffff;stop-opacity:1"
         offset="1"
         id="stop6241" />
    </linearGradient>
    <linearGradient
       inkscape:collect="always"
       xlink:href="#linearGradient6237"
       id="linearGradient6243"
       x1="331.42862"
       y1="2595.2192"
       x2="308.5715"
       y2="-499.06638"
       gradientUnits="userSpaceOnUse"
       gradientTransform="translate(-1237.8132,-76.281385)" />
    <clipPath
       clipPathUnits="userSpaceOnUse"
       id="clipPath6922">
      <g
         id="g6924"
         transform="translate(-43.29641,66.029073)"
         mask="none">
        <g
           transform="matrix(1.5207878,0,0,1.4201906,-354.93282,-569.5538)"
           id="g6926">
          <path
             style="opacity:1;fill:#000000;fill-opacity:1;stroke:none"
             id="path6928"
             sodipodi:type="arc"
             sodipodi:cx="281.54736"
             sodipodi:cy="972.84241"
             sodipodi:rx="69.318176"
             sodipodi:ry="48.528217"
             sodipodi:start="0"
             sodipodi:end="6.1960372"
             sodipodi:open="true"
             d="m 350.86554,972.84241 a 69.318176,48.528217 0 0 1 -67.80806,48.51669 69.318176,48.528217 0 0 1 -70.7625,-46.40279 69.318176,48.528217 0 0 1 64.7249,-50.5385 69.318176,48.528217 0 0 1 73.5826,44.20081"
             transform="matrix(0.79004338,0.61305095,-0.64276885,0.76606018,0,0)" />
          <path
             style="opacity:1;fill:#000000;fill-opacity:1;stroke:none"
             id="path6930"
             sodipodi:type="arc"
             sodipodi:cx="-307.74048"
             sodipodi:cy="1016.0968"
             sodipodi:rx="33.182648"
             sodipodi:ry="120.70103"
             sodipodi:start="0"
             sodipodi:end="6.196041"
             sodipodi:open="true"
             d="m -274.55783,1016.0968 a 33.182648,120.70103 0 0 1 -32.45979,120.6724 33.182648,120.70103 0 0 1 -33.87401,-115.4149 33.182648,120.70103 0 0 1 30.98394,-125.70082 33.182648,120.70103 0 0 1 35.22394,109.93822" />
          <path
             style="opacity:1;fill:#000000;fill-opacity:1;stroke:none"
             id="path6932"
             sodipodi:type="arc"
             sodipodi:cx="-391.83984"
             sodipodi:cy="1130.4159"
             sodipodi:rx="92.445839"
             sodipodi:ry="17.660662"
             sodipodi:start="0"
             sodipodi:end="6.196041"
             sodipodi:open="true"
             d="m -299.394,1130.4159 a 92.445839,17.660662 0 0 1 -90.43197,17.6565 92.445839,17.660662 0 0 1 -94.37197,-16.8872 92.445839,17.660662 0 0 1 86.3203,-18.3923 92.445839,17.660662 0 0 1 98.13283,16.0859" />
          <path
             style="opacity:1;fill:#000000;fill-opacity:1;stroke:none"
             id="path6934"
             sodipodi:type="arc"
             sodipodi:cx="-325.61002"
             sodipodi:cy="944.39679"
             sodipodi:rx="34.494717"
             sodipodi:ry="33.172592"
             sodipodi:start="0"
             sodipodi:end="6.196041"
             sodipodi:open="true"
             d="m -291.1153,944.39679 a 34.494717,33.172592 0 0 1 -33.74327,33.16472 34.494717,33.172592 0 0 1 -35.21342,-31.71978 34.494717,33.172592 0 0 1 32.20907,-34.54671 34.494717,33.172592 0 0 1 36.61672,30.21462" />
          <path
             style="opacity:1;fill:#000000;fill-opacity:1;stroke:none"
             id="path6936"
             sodipodi:type="arc"
             sodipodi:cx="-509.49628"
             sodipodi:cy="605.17987"
             sodipodi:rx="83.161423"
             sodipodi:ry="39.643192"
             sodipodi:start="0"
             sodipodi:end="6.196041"
             sodipodi:open="true"
             d="m -426.33485,605.17987 a 83.161423,39.643192 0 0 1 -81.34981,39.63379 83.161423,39.643192 0 0 1 -84.89411,-37.907 83.161423,39.643192 0 0 1 77.65108,-41.28534 83.161423,39.643192 0 0 1 88.27727,36.10824"
             transform="matrix(0.83708259,-0.54707653,0.57712079,0.8166588,0,0)" />
          <path
             style="opacity:1;fill:#000000;fill-opacity:1;stroke:none"
             id="path6938"
             sodipodi:type="arc"
             sodipodi:cx="-722.99591"
             sodipodi:cy="639.40479"
             sodipodi:rx="76.34491"
             sodipodi:ry="31.58017"
             sodipodi:start="0"
             sodipodi:end="6.196041"
             sodipodi:open="true"
             d="m -646.651,639.40479 a 76.34491,31.58017 0 0 1 -74.68179,31.57267 76.34491,31.58017 0 0 1 -77.93557,-30.19709 76.34491,31.58017 0 0 1 71.28623,-32.88833 76.34491,31.58017 0 0 1 81.04143,28.7642"
             transform="matrix(0.83708259,-0.54707653,0.57712079,0.8166588,0,0)" />
          <path
             style="opacity:1;fill:#000000;fill-opacity:1;stroke:none"
             id="path6940"
             sodipodi:type="arc"
             sodipodi:cx="-682.37036"
             sodipodi:cy="606.34558"
             sodipodi:rx="143.82835"
             sodipodi:ry="42.330864"
             sodipodi:start="0"
             sodipodi:end="6.196041"
             sodipodi:open="true"
             d="m -538.54201,606.34558 a 143.82835,42.330864 0 0 1 -140.69514,42.32082 143.82835,42.330864 0 0 1 -146.82506,-40.47696 143.82835,42.330864 0 0 1 134.29817,-44.08434 143.82835,42.330864 0 0 1 152.67625,38.55625"
             transform="matrix(0.83708259,-0.54707653,0.57712079,0.8166588,0,0)" />
          <path
             style="opacity:1;fill:#000000;fill-opacity:1;stroke:none"
             id="path6942"
             sodipodi:type="arc"
             sodipodi:cx="-369.75781"
             sodipodi:cy="606.52368"
             sodipodi:rx="120.65223"
             sodipodi:ry="34.267841"
             sodipodi:start="0"
             sodipodi:end="6.196041"
             sodipodi:open="true"
             d="m -249.10558,606.52368 a 120.65223,34.267841 0 0 1 -118.0239,34.25971 120.65223,34.267841 0 0 1 -123.16605,-32.76706 120.65223,34.267841 0 0 1 112.65771,-35.68732 120.65223,34.267841 0 0 1 128.0744,31.2122"
             transform="matrix(0.83708259,-0.54707653,0.57712079,0.8166588,0,0)" />
          <path
             style="opacity:1;fill:#000000;fill-opacity:1;stroke:none"
             id="path6944"
             sodipodi:type="arc"
             sodipodi:cx="-172.76071"
             sodipodi:cy="604.50793"
             sodipodi:rx="113.15406"
             sodipodi:ry="26.876738"
             sodipodi:start="0"
             sodipodi:end="6.196041"
             sodipodi:open="true"
             d="M -59.606651,604.50793 A 113.15406,26.876738 0 0 1 -170.29572,631.37829 113.15406,26.876738 0 0 1 -285.80738,605.67864 113.15406,26.876738 0 0 1 -180.151,577.68858 113.15406,26.876738 0 0 1 -60.036033,602.16874"
             transform="matrix(0.83708259,-0.54707653,0.57712079,0.8166588,0,0)" />
        </g>
        <g
           id="g6946"
           transform="translate(-1395.7143,-977.14285)">
          <path
             transform="matrix(0.79004338,0.61305095,-0.64276885,0.76606018,0,0)"
             d="m 350.86554,972.84241 a 69.318176,48.528217 0 0 1 -67.80806,48.51669 69.318176,48.528217 0 0 1 -70.7625,-46.40279 69.318176,48.528217 0 0 1 64.7249,-50.5385 69.318176,48.528217 0 0 1 73.5826,44.20081"
             sodipodi:open="true"
             sodipodi:end="6.1960372"
             sodipodi:start="0"
             sodipodi:ry="48.528217"
             sodipodi:rx="69.318176"
             sodipodi:cy="972.84241"
             sodipodi:cx="281.54736"
             sodipodi:type="arc"
             id="path6948"
             style="opacity:1;fill:#000000;fill-opacity:1;stroke:none" />
          <path
             d="m -274.55783,1016.0968 a 33.182648,120.70103 0 0 1 -32.45979,120.6724 33.182648,120.70103 0 0 1 -33.87401,-115.4149 33.182648,120.70103 0 0 1 30.98394,-125.70082 33.182648,120.70103 0 0 1 35.22394,109.93822"
             sodipodi:open="true"
             sodipodi:end="6.196041"
             sodipodi:start="0"
             sodipodi:ry="120.70103"
             sodipodi:rx="33.182648"
             sodipodi:cy="1016.0968"
             sodipodi:cx="-307.74048"
             sodipodi:type="arc"
             id="path6950"
             style="opacity:1;fill:#000000;fill-opacity:1;stroke:none" />
          <path
             d="m -299.394,1130.4159 a 92.445839,17.660662 0 0 1 -90.43197,17.6565 92.445839,17.660662 0 0 1 -94.37197,-16.8872 92.445839,17.660662 0 0 1 86.3203,-18.3923 92.445839,17.660662 0 0 1 98.13283,16.0859"
             sodipodi:open="true"
             sodipodi:end="6.196041"
             sodipodi:start="0"
             sodipodi:ry="17.660662"
             sodipodi:rx="92.445839"
             sodipodi:cy="1130.4159"
             sodipodi:cx="-391.83984"
             sodipodi:type="arc"
             id="path6952"
             style="opacity:1;fill:#000000;fill-opacity:1;stroke:none" />
          <path
             d="m -291.1153,944.39679 a 34.494717,33.172592 0 0 1 -33.74327,33.16472 34.494717,33.172592 0 0 1 -35.21342,-31.71978 34.494717,33.172592 0 0 1 32.20907,-34.54671 34.494717,33.172592 0 0 1 36.61672,30.21462"
             sodipodi:open="true"
             sodipodi:end="6.196041"
             sodipodi:start="0"
             sodipodi:ry="33.172592"
             sodipodi:rx="34.494717"
             sodipodi:cy="944.39679"
             sodipodi:cx="-325.61002"
             sodipodi:type="arc"
             id="path6954"
             style="opacity:1;fill:#000000;fill-opacity:1;stroke:none" />
          <path
             transform="matrix(0.83708259,-0.54707653,0.57712079,0.8166588,0,0)"
             d="m -426.33485,605.17987 a 83.161423,39.643192 0 0 1 -81.34981,39.63379 83.161423,39.643192 0 0 1 -84.89411,-37.907 83.161423,39.643192 0 0 1 77.65108,-41.28534 83.161423,39.643192 0 0 1 88.27727,36.10824"
             sodipodi:open="true"
             sodipodi:end="6.196041"
             sodipodi:start="0"
             sodipodi:ry="39.643192"
             sodipodi:rx="83.161423"
             sodipodi:cy="605.17987"
             sodipodi:cx="-509.49628"
             sodipodi:type="arc"
             id="path6956"
             style="opacity:1;fill:#000000;fill-opacity:1;stroke:none" />
          <path
             transform="matrix(0.83708259,-0.54707653,0.57712079,0.8166588,0,0)"
             d="m -646.651,639.40479 a 76.34491,31.58017 0 0 1 -74.68179,31.57267 76.34491,31.58017 0 0 1 -77.93557,-30.19709 76.34491,31.58017 0 0 1 71.28623,-32.88833 76.34491,31.58017 0 0 1 81.04143,28.7642"
             sodipodi:open="true"
             sodipodi:end="6.196041"
             sodipodi:start="0"
             sodipodi:ry="31.58017"
             sodipodi:rx="76.34491"
             sodipodi:cy="639.40479"
             sodipodi:cx="-722.99591"
             sodipodi:type="arc"
             id="path6958"
             style="opacity:1;fill:#000000;fill-opacity:1;stroke:none" />
          <path
             transform="matrix(0.83708259,-0.54707653,0.57712079,0.8166588,0,0)"
             d="m -538.54201,606.34558 a 143.82835,42.330864 0 0 1 -140.69514,42.32082 143.82835,42.330864 0 0 1 -146.82506,-40.47696 143.82835,42.330864 0 0 1 134.29817,-44.08434 143.82835,42.330864 0 0 1 152.67625,38.55625"
             sodipodi:open="true"
             sodipodi:end="6.196041"
             sodipodi:start="0"
             sodipodi:ry="42.330864"
             sodipodi:rx="143.82835"
             sodipodi:cy="606.34558"
             sodipodi:cx="-682.37036"
             sodipodi:type="arc"
             id="path6960"
             style="opacity:1;fill:#000000;fill-opacity:1;stroke:none" />
          <path
             transform="matrix(0.83708259,-0.54707653,0.57712079,0.8166588,0,0)"
             d="m -249.10558,606.52368 a 120.65223,34.267841 0 0 1 -118.0239,34.25971 120.65223,34.267841 0 0 1 -123.16605,-32.76706 120.65223,34.267841 0 0 1 112.65771,-35.68732 120.65223,34.267841 0 0 1 128.0744,31.2122"
             sodipodi:open="true"
             sodipodi:end="6.196041"
             sodipodi:start="0"
             sodipodi:ry="34.267841"
             sodipodi:rx="120.65223"
             sodipodi:cy="606.52368"
             sodipodi:cx="-369.75781"
             sodipodi:type="arc"
             id="path6962"
             style="opacity:1;fill:#000000;fill-opacity:1;stroke:none" />
          <path
             transform="matrix(0.83708259,-0.54707653,0.57712079,0.8166588,0,0)"
             d="M -59.606651,604.50793 A 113.15406,26.876738 0 0 1 -170.29572,631.37829 113.15406,26.876738 0 0 1 -285.80738,605.67864 113.15406,26.876738 0 0 1 -180.151,577.68858 113.15406,26.876738 0 0 1 -60.036033,602.16874"
             sodipodi:open="true"
             sodipodi:end="6.196041"
             sodipodi:start="0"
             sodipodi:ry="26.876738"
             sodipodi:rx="113.15406"
             sodipodi:cy="604.50793"
             sodipodi:cx="-172.76071"
             sodipodi:type="arc"
             id="path6964"
             style="opacity:1;fill:#000000;fill-opacity:1;stroke:none" />
        </g>
        <g
           transform="matrix(1.2330799,0,0,1.1507205,-881.40851,-747.32442)"
           id="g6966">
          <path
             style="opacity:1;fill:#000000;fill-opacity:1;stroke:none"
             id="path6968"
             sodipodi:type="arc"
             sodipodi:cx="281.54736"
             sodipodi:cy="972.84241"
             sodipodi:rx="69.318176"
             sodipodi:ry="48.528217"
             sodipodi:start="0"
             sodipodi:end="6.1960372"
             sodipodi:open="true"
             d="m 350.86554,972.84241 a 69.318176,48.528217 0 0 1 -67.80806,48.51669 69.318176,48.528217 0 0 1 -70.7625,-46.40279 69.318176,48.528217 0 0 1 64.7249,-50.5385 69.318176,48.528217 0 0 1 73.5826,44.20081"
             transform="matrix(0.79004338,0.61305095,-0.64276885,0.76606018,0,0)" />
          <path
             style="opacity:1;fill:#000000;fill-opacity:1;stroke:none"
             id="path6970"
             sodipodi:type="arc"
             sodipodi:cx="-307.74048"
             sodipodi:cy="1016.0968"
             sodipodi:rx="33.182648"
             sodipodi:ry="120.70103"
             sodipodi:start="0"
             sodipodi:end="6.196041"
             sodipodi:open="true"
             d="m -274.55783,1016.0968 a 33.182648,120.70103 0 0 1 -32.45979,120.6724 33.182648,120.70103 0 0 1 -33.87401,-115.4149 33.182648,120.70103 0 0 1 30.98394,-125.70082 33.182648,120.70103 0 0 1 35.22394,109.93822" />
          <path
             style="opacity:1;fill:#000000;fill-opacity:1;stroke:none"
             id="path6972"
             sodipodi:type="arc"
             sodipodi:cx="-391.83984"
             sodipodi:cy="1130.4159"
             sodipodi:rx="92.445839"
             sodipodi:ry="17.660662"
             sodipodi:start="0"
             sodipodi:end="6.196041"
             sodipodi:open="true"
             d="m -299.394,1130.4159 a 92.445839,17.660662 0 0 1 -90.43197,17.6565 92.445839,17.660662 0 0 1 -94.37197,-16.8872 92.445839,17.660662 0 0 1 86.3203,-18.3923 92.445839,17.660662 0 0 1 98.13283,16.0859" />
          <path
             style="opacity:1;fill:#000000;fill-opacity:1;stroke:none"
             id="path6974"
             sodipodi:type="arc"
             sodipodi:cx="-325.61002"
             sodipodi:cy="944.39679"
             sodipodi:rx="34.494717"
             sodipodi:ry="33.172592"
             sodipodi:start="0"
             sodipodi:end="6.196041"
             sodipodi:open="true"
             d="m -291.1153,944.39679 a 34.494717,33.172592 0 0 1 -33.74327,33.16472 34.494717,33.172592 0 0 1 -35.21342,-31.71978 34.494717,33.172592 0 0 1 32.20907,-34.54671 34.494717,33.172592 0 0 1 36.61672,30.21462" />
          <path
             style="opacity:1;fill:#000000;fill-opacity:1;stroke:none"
             id="path6976"
             sodipodi:type="arc"
             sodipodi:cx="-509.49628"
             sodipodi:cy="605.17987"
             sodipodi:rx="83.161423"
             sodipodi:ry="39.643192"
             sodipodi:start="0"
             sodipodi:end="6.196041"
             sodipodi:open="true"
             d="m -426.33485,605.17987 a 83.161423,39.643192 0 0 1 -81.34981,39.63379 83.161423,39.643192 0 0 1 -84.89411,-37.907 83.161423,39.643192 0 0 1 77.65108,-41.28534 83.161423,39.643192 0 0 1 88.27727,36.10824"
             transform="matrix(0.83708259,-0.54707653,0.57712079,0.8166588,0,0)" />
          <path
             style="opacity:1;fill:#000000;fill-opacity:1;stroke:none"
             id="path6978"
             sodipodi:type="arc"
             sodipodi:cx="-722.99591"
             sodipodi:cy="639.40479"
             sodipodi:rx="76.34491"
             sodipodi:ry="31.58017"
             sodipodi:start="0"
             sodipodi:end="6.196041"
             sodipodi:open="true"
             d="m -646.651,639.40479 a 76.34491,31.58017 0 0 1 -74.68179,31.57267 76.34491,31.58017 0 0 1 -77.93557,-30.19709 76.34491,31.58017 0 0 1 71.28623,-32.88833 76.34491,31.58017 0 0 1 81.04143,28.7642"
             transform="matrix(0.83708259,-0.54707653,0.57712079,0.8166588,0,0)" />
          <path
             style="opacity:1;fill:#000000;fill-opacity:1;stroke:none"
             id="path6980"
             sodipodi:type="arc"
             sodipodi:cx="-682.37036"
             sodipodi:cy="606.34558"
             sodipodi:rx="143.82835"
             sodipodi:ry="42.330864"
             sodipodi:start="0"
             sodipodi:end="6.196041"
             sodipodi:open="true"
             d="m -538.54201,606.34558 a 143.82835,42.330864 0 0 1 -140.69514,42.32082 143.82835,42.330864 0 0 1 -146.82506,-40.47696 143.82835,42.330864 0 0 1 134.29817,-44.08434 143.82835,42.330864 0 0 1 152.67625,38.55625"
             transform="matrix(0.83708259,-0.54707653,0.57712079,0.8166588,0,0)" />
          <path
             style="opacity:1;fill:#000000;fill-opacity:1;stroke:none"
             id="path6982"
             sodipodi:type="arc"
             sodipodi:cx="-369.75781"
             sodipodi:cy="606.52368"
             sodipodi:rx="120.65223"
             sodipodi:ry="34.267841"
             sodipodi:start="0"
             sodipodi:end="6.196041"
             sodipodi:open="true"
             d="m -249.10558,606.52368 a 120.65223,34.267841 0 0 1 -118.0239,34.25971 120.65223,34.267841 0 0 1 -123.16605,-32.76706 120.65223,34.267841 0 0 1 112.65771,-35.68732 120.65223,34.267841 0 0 1 128.0744,31.2122"
             transform="matrix(0.83708259,-0.54707653,0.57712079,0.8166588,0,0)" />
          <path
             style="opacity:1;fill:#000000;fill-opacity:1;stroke:none"
             id="path6984"
             sodipodi:type="arc"
             sodipodi:cx="-172.76071"
             sodipodi:cy="604.50793"
             sodipodi:rx="113.15406"
             sodipodi:ry="26.876738"
             sodipodi:start="0"
             sodipodi:end="6.196041"
             sodipodi:open="true"
             d="M -59.606651,604.50793 A 113.15406,26.876738 0 0 1 -170.29572,631.37829 113.15406,26.876738 0 0 1 -285.80738,605.67864 113.15406,26.876738 0 0 1 -180.151,577.68858 113.15406,26.876738 0 0 1 -60.036033,602.16874"
             transform="matrix(0.83708259,-0.54707653,0.57712079,0.8166588,0,0)" />
        </g>
      </g>
    </clipPath>
    <linearGradient
       inkscape:collect="always"
       xlink:href="#linearGradient6237"
       id="linearGradient4651"
       x1="84.241081"
       y1="389.05206"
       x2="688.11615"
       y2="389.05206"
       gradientUnits="userSpaceOnUse" />
    <linearGradient
       inkscape:collect="always"
       xlink:href="#linearGradient6237"
       id="linearGradient4664"
       gradientUnits="userSpaceOnUse"
       x1="-5.0965986"
       y1="592.41589"
       x2="511.12643"
       y2="297.37164"
       gradientTransform="matrix(0.72924067,0,0,0.72924067,417.24334,-825.20376)" />
    <linearGradient
       inkscape:collect="always"
       xlink:href="#linearGradient6237"
       id="linearGradient4674"
       gradientUnits="userSpaceOnUse"
       gradientTransform="translate(323.63838,-830.12451)"
       x1="-5.0965986"
       y1="592.41589"
       x2="511.12643"
       y2="297.37164" />
    <linearGradient
       inkscape:collect="always"
       xlink:href="#linearGradient6237"
       id="linearGradient4676"
       gradientUnits="userSpaceOnUse"
       x1="84.241081"
       y1="389.05206"
       x2="688.11615"
       y2="389.05206" />
    <linearGradient
       inkscape:collect="always"
       xlink:href="#linearGradient6237"
       id="linearGradient4678"
       gradientUnits="userSpaceOnUse"
       gradientTransform="translate(323.63838,-830.12451)"
       x1="-5.0965986"
       y1="592.41589"
       x2="511.12643"
       y2="297.37164" />
    <linearGradient
       inkscape:collect="always"
       xlink:href="#linearGradient6237"
       id="linearGradient4680"
       gradientUnits="userSpaceOnUse"
       x1="84.241081"
       y1="389.05206"
       x2="688.11615"
       y2="389.05206" />
  </defs>
  <sodipodi:namedview
     id="base"
     pagecolor="#ffffff"
     bordercolor="#666666"
     borderopacity="1.0"
     inkscape:pageopacity="0.0"
     inkscape:pageshadow="2"
     inkscape:zoom="0.1767767"
     inkscape:cx="1639.7231"
     inkscape:cy="208.11989"
     inkscape:document-units="px"
     inkscape:current-layer="layer3"
     showgrid="false"
     inkscape:window-width="1676"
     inkscape:window-height="1213"
     inkscape:window-x="3179"
     inkscape:window-y="62"
     inkscape:window-maximized="0"
     showguides="true">
    <inkscape:grid
       type="xygrid"
       id="grid3376" />
  </sodipodi:namedview>
  <metadata
     id="metadata5603">
    <rdf:RDF>
      <cc:Work
         rdf:about="">
        <dc:format>image/svg+xml</dc:format>
        <dc:type
           rdf:resource="http://purl.org/dc/dcmitype/StillImage" />
        <dc:title></dc:title>
      </cc:Work>
    </rdf:RDF>
  </metadata>
  <g
     inkscape:groupmode="layer"
     id="layer3"
     inkscape:label="Backgound"
     style="display:inline">
    <rect
       style="opacity:1;fill:#333333;fill-opacity:1;stroke:none"
       id="rect6986"
       width="741.57159"
       height="746.04376"
       x="-0.54002202"
       y="-0.11078648"
       inkscape:export-xdpi="90"
       inkscape:export-ydpi="90"
       transform="matrix(0.99998968,-0.00454373,0.0044314,0.99999018,0,0)" />
    <rect
       style="display:inline;opacity:1;fill:url(#linearGradient6243);fill-opacity:1;fill-rule:evenodd;stroke:none;stroke-width:1px;stroke-linecap:butt;stroke-linejoin:miter;stroke-opacity:1"
       id="rect5625"
       width="2277.1428"
       height="1857.1428"
       x="-2069.2417"
       y="-581.06201"
       clip-path="url(#clipPath6922)"
       transform="matrix(0.31668305,0,0,0.38902307,1397.127,227.84067)" />
    <g
       id="g4545"
       transform="matrix(0.75043919,0,0,0.75885781,-219.09852,745.908)"
       style="fill:url(#linearGradient4651);fill-opacity:1;stroke:none;stroke-opacity:1">
      <path
         id="path4527"
         style="fill:url(#linearGradient4664);fill-opacity:1;stroke:none;stroke-opacity:1"
         d="m 565.09997,-459.03532 a 29.105637,10.478028 0 0 1 -29.10563,10.47803 29.105637,10.478028 0 0 1 -29.10564,-10.47803 29.105637,10.478028 0 0 1 29.10564,-10.47802 29.105637,10.478028 0 0 1 29.10563,10.47802 z m 71.87584,-44.50757 a 19.121361,55.534988 69.059103 0 1 -42.31328,37.57713 19.121361,55.534988 69.059103 0 1 -60.69054,3.70492 19.121361,55.534988 69.059103 0 1 42.31329,-37.57714 19.121361,55.534988 69.059103 0 1 60.69053,-3.70491 z m 24.59918,27.42408 a 14.900045,59.757275 78.218673 0 1 -50.25354,26.8925 14.900045,59.757275 78.218673 0 1 -65.85761,-0.19294 14.900045,59.757275 78.218673 0 1 50.25354,-26.89251 14.900045,59.757275 78.218673 0 1 65.85761,0.19295 z m 17.96005,79.78125 a 22.12028,6.4032392 0 0 1 -22.12029,6.40324 22.12028,6.4032392 0 0 1 -22.12027,-6.40324 22.12028,6.4032392 0 0 1 22.12027,-6.40323 22.12028,6.4032392 0 0 1 22.12029,6.40323 z m -3.6881,-45.03915 a 45.014096,10.065917 75.243403 0 1 2.65557,47.83766 45.014096,10.065917 75.243403 0 1 -21.10379,-38.91425 45.014096,10.065917 75.243403 0 1 -2.65557,-47.83766 45.014096,10.065917 75.243403 0 1 21.10379,38.91425 z m 242.10364,-251.19858 a 11.185679,71.841492 58.803097 0 1 -49.05488,43.95895 11.185679,71.841492 58.803097 0 1 -72.20537,31.94138 11.185679,71.841492 58.803097 0 1 49.05488,-43.95895 11.185679,71.841492 58.803097 0 1 72.20537,-31.94138 z m -94.3722,59.71104 a 16.593191,74.278479 57.07975 0 1 -49.10971,52.67426 16.593191,74.278479 57.07975 0 1 -74.33897,29.5403 16.593191,74.278479 57.07975 0 1 49.10971,-52.67426 16.593191,74.278479 57.07975 0 1 74.33897,-29.5403 z m -92.98144,64.97268 a 22.954014,39.207358 70.063236 0 1 -28.98769,34.9553 22.954014,39.207358 70.063236 0 1 -44.71249,-8.17569 22.954014,39.207358 70.063236 0 1 28.98769,-34.95529 22.954014,39.207358 70.063236 0 1 44.71249,8.17568 z m -42.92087,15.33972 a 20.158114,94.343828 57.914775 0 1 -70.54583,67.66921 20.158114,94.343828 57.914775 0 1 -89.6179,32.04702 20.158114,94.343828 57.914775 0 1 70.54583,-67.6692 20.158114,94.343828 57.914775 0 1 89.6179,-32.04703 z m -157.8833,82.42798 a 36.090987,25.612957 70 0 1 -11.72446,42.67459 36.090987,25.612957 70 0 1 -36.41215,-25.15429 36.090987,25.612957 70 0 1 11.72447,-42.67458 36.090987,25.612957 70 0 1 36.41214,25.15428 z"
         inkscape:connector-curvature="0" />
    </g>
    <g
       style="stroke:none;stroke-opacity:1"
       transform="matrix(0.94712516,0,0,0.95775025,702.12031,652.63857)"
       id="g4615">
      <ellipse
         style="fill:#00ffff;fill-rule:evenodd;stroke:none;stroke-width:0.28222221px;stroke-linecap:butt;stroke-linejoin:miter;stroke-opacity:1"
         id="ellipse4617"
         cx="-56.628166"
         cy="510.33923"
         rx="35.122776"
         ry="49.491188"
         transform="matrix(0.93969262,-0.34202015,0.34202015,0.93969262,0,0)" />
      <ellipse
         style="fill:#00ffff;fill-rule:evenodd;stroke:none;stroke-width:0.28222221px;stroke-linecap:butt;stroke-linejoin:miter;stroke-opacity:1"
         id="ellipse4619"
         cx="21.418808"
         cy="514.4931"
         rx="129.35945"
         ry="27.704483"
         transform="matrix(0.84891678,-0.52852654,0.47200503,0.88159586,0,0)" />
      <ellipse
         style="fill:#00ffff;fill-rule:evenodd;stroke:none;stroke-width:0.28222221px;stroke-linecap:butt;stroke-linejoin:miter;stroke-opacity:1"
         id="ellipse4621"
         cx="229.07959"
         cy="478.3829"
         rx="53.764618"
         ry="31.476624"
         transform="matrix(0.93987719,-0.34151262,0.34252823,0.93950754,0,0)" />
      <ellipse
         style="fill:#00ffff;fill-rule:evenodd;stroke:none;stroke-width:0.28222221px;stroke-linecap:butt;stroke-linejoin:miter;stroke-opacity:1"
         id="ellipse4623"
         cx="85.914246"
         cy="544.13312"
         rx="101.69479"
         ry="23.469639"
         transform="matrix(0.83231332,-0.55430546,0.7370502,0.675838,0,0)" />
      <ellipse
         style="fill:#00ffff;fill-rule:evenodd;stroke:none;stroke-width:0.28222221px;stroke-linecap:butt;stroke-linejoin:miter;stroke-opacity:1"
         id="ellipse4625"
         cx="81.759254"
         cy="601.85413"
         rx="98.085327"
         ry="17.884253"
         transform="matrix(0.84764416,-0.53056515,0.88754119,0.46072838,0,0)" />
      <ellipse
         style="fill:#00ffff;stroke:none;stroke-opacity:1"
         id="ellipse4627"
         cx="192.39684"
         cy="638.92633"
         rx="14.05093"
         ry="61.671452"
         transform="matrix(0.9002196,-0.43543618,0.26414945,0.96448176,0,0)" />
      <ellipse
         style="fill:#00ffff;stroke:none;stroke-opacity:1"
         id="ellipse4629"
         cx="329.34451"
         cy="588.09967"
         rx="30.333305"
         ry="8.780694" />
      <ellipse
         style="fill:#00ffff;stroke:none;stroke-opacity:1"
         id="ellipse4631"
         cx="-27.986071"
         cy="566.34229"
         rx="81.688644"
         ry="21.432384"
         transform="matrix(0.9745662,-0.2240998,0.49919049,0.86649227,0,0)" />
      <ellipse
         style="fill:#00ffff;stroke:none;stroke-opacity:1"
         id="ellipse4633"
         cx="-21.216442"
         cy="525.05005"
         rx="76.084923"
         ry="26.422245"
         transform="matrix(0.92822626,-0.37201615,0.4768811,0.87896781,0,0)" />
      <ellipse
         style="fill:#00ffff;stroke:none;stroke-opacity:1"
         id="ellipse4635"
         cx="162.84198"
         cy="502.12289"
         rx="39.912251"
         ry="14.368408" />
    </g>
    <g
       style="fill:url(#linearGradient4680);fill-opacity:1;stroke:none;stroke-opacity:1"
       transform="matrix(0.79114438,0,0,0.80001964,-142.66107,846.79128)"
       id="g4666">
      <path
         inkscape:connector-curvature="0"
         d="m 526.39261,-328.00162 a 39.912251,14.368408 0 0 1 -39.91225,14.36841 39.912251,14.368408 0 0 1 -39.91225,-14.36841 39.912251,14.368408 0 0 1 39.91225,-14.3684 39.912251,14.368408 0 0 1 39.91225,14.3684 z m 98.56258,-61.03276 a 26.22092,76.15454 69.059103 0 1 -58.02376,51.52912 26.22092,76.15454 69.059103 0 1 -83.22429,5.08052 26.22092,76.15454 69.059103 0 1 58.02376,-51.52913 26.22092,76.15454 69.059103 0 1 83.22429,-5.08051 z m 33.73259,37.60635 a 20.432273,81.944517 78.218673 0 1 -68.91215,36.8774 20.432273,81.944517 78.218673 0 1 -90.30984,-0.26458 20.432273,81.944517 78.218673 0 1 68.91215,-36.87741 20.432273,81.944517 78.218673 0 1 90.30984,0.26459 z m 24.62842,109.40319 a 30.333305,8.780694 0 0 1 -30.33331,8.78069 30.333305,8.780694 0 0 1 -30.3333,-8.78069 30.333305,8.780694 0 0 1 30.3333,-8.78069 30.333305,8.780694 0 0 1 30.33331,8.78069 z m -5.05745,-61.76171 a 61.727352,13.803285 75.243403 0 1 3.64155,65.59927 61.727352,13.803285 75.243403 0 1 -28.9394,-53.3627 61.727352,13.803285 75.243403 0 1 -3.64155,-65.59927 61.727352,13.803285 75.243403 0 1 28.9394,53.3627 z M 1010.2529,-648.2525 a 15.338803,98.515476 58.803097 0 1 -67.26843,60.28044 15.338803,98.515476 58.803097 0 1 -99.01446,43.80087 15.338803,98.515476 58.803097 0 1 67.26844,-60.28044 15.338803,98.515476 58.803097 0 1 99.01445,-43.80087 z m -129.41159,81.88111 a 22.754067,101.85729 57.07975 0 1 -67.34363,72.23166 22.754067,101.85729 57.07975 0 1 -101.94024,40.5083 22.754067,101.85729 57.07975 0 1 67.34363,-72.23165 22.754067,101.85729 57.07975 0 1 101.94024,-40.50831 z m -127.50446,89.09635 a 31.476596,53.764634 70.063236 0 1 -39.75051,47.93383 31.476596,53.764634 70.063236 0 1 -61.31377,-11.21123 31.476596,53.764634 70.063236 0 1 39.75051,-47.93382 31.476596,53.764634 70.063236 0 1 61.31377,11.21122 z m -58.85694,21.0352 a 27.642608,129.37269 57.914775 0 1 -96.73875,92.79407 27.642608,129.37269 57.914775 0 1 -122.89207,43.94574 27.642608,129.37269 57.914775 0 1 96.73875,-92.79406 27.642608,129.37269 57.914775 0 1 122.89207,-43.94575 z m -216.50369,113.03261 a 49.491188,35.122776 70 0 1 -16.07763,58.51921 49.491188,35.122776 70 0 1 -49.93159,-34.49381 49.491188,35.122776 70 0 1 16.07763,-58.51919 49.491188,35.122776 70 0 1 49.93159,34.49379 z"
         style="fill:url(#linearGradient4678);fill-opacity:1;stroke:none;stroke-opacity:1"
         id="path4668" />
    </g>
    <g
       id="g4670"
       transform="matrix(0.31304675,0,0,0.31655859,-3.532011,333.85643)"
       style="fill:url(#linearGradient4676);fill-opacity:1;stroke:none;stroke-opacity:1">
      <path
         id="path4672"
         style="fill:url(#linearGradient4674);fill-opacity:1;stroke:none;stroke-opacity:1"
         d="m 526.39261,-328.00162 a 39.912251,14.368408 0 0 1 -39.91225,14.36841 39.912251,14.368408 0 0 1 -39.91225,-14.36841 39.912251,14.368408 0 0 1 39.91225,-14.3684 39.912251,14.368408 0 0 1 39.91225,14.3684 z m 98.56258,-61.03276 a 26.22092,76.15454 69.059103 0 1 -58.02376,51.52912 26.22092,76.15454 69.059103 0 1 -83.22429,5.08052 26.22092,76.15454 69.059103 0 1 58.02376,-51.52913 26.22092,76.15454 69.059103 0 1 83.22429,-5.08051 z m 33.73259,37.60635 a 20.432273,81.944517 78.218673 0 1 -68.91215,36.8774 20.432273,81.944517 78.218673 0 1 -90.30984,-0.26458 20.432273,81.944517 78.218673 0 1 68.91215,-36.87741 20.432273,81.944517 78.218673 0 1 90.30984,0.26459 z m 24.62842,109.40319 a 30.333305,8.780694 0 0 1 -30.33331,8.78069 30.333305,8.780694 0 0 1 -30.3333,-8.78069 30.333305,8.780694 0 0 1 30.3333,-8.78069 30.333305,8.780694 0 0 1 30.33331,8.78069 z m -5.05745,-61.76171 a 61.727352,13.803285 75.243403 0 1 3.64155,65.59927 61.727352,13.803285 75.243403 0 1 -28.9394,-53.3627 61.727352,13.803285 75.243403 0 1 -3.64155,-65.59927 61.727352,13.803285 75.243403 0 1 28.9394,53.3627 z M 1010.2529,-648.2525 a 15.338803,98.515476 58.803097 0 1 -67.26843,60.28044 15.338803,98.515476 58.803097 0 1 -99.01446,43.80087 15.338803,98.515476 58.803097 0 1 67.26844,-60.28044 15.338803,98.515476 58.803097 0 1 99.01445,-43.80087 z m -129.41159,81.88111 a 22.754067,101.85729 57.07975 0 1 -67.34363,72.23166 22.754067,101.85729 57.07975 0 1 -101.94024,40.5083 22.754067,101.85729 57.07975 0 1 67.34363,-72.23165 22.754067,101.85729 57.07975 0 1 101.94024,-40.50831 z m -127.50446,89.09635 a 31.476596,53.764634 70.063236 0 1 -39.75051,47.93383 31.476596,53.764634 70.063236 0 1 -61.31377,-11.21123 31.476596,53.764634 70.063236 0 1 39.75051,-47.93382 31.476596,53.764634 70.063236 0 1 61.31377,11.21122 z m -58.85694,21.0352 a 27.642608,129.37269 57.914775 0 1 -96.73875,92.79407 27.642608,129.37269 57.914775 0 1 -122.89207,43.94574 27.642608,129.37269 57.914775 0 1 96.73875,-92.79406 27.642608,129.37269 57.914775 0 1 122.89207,-43.94575 z m -216.50369,113.03261 a 49.491188,35.122776 70 0 1 -16.07763,58.51921 49.491188,35.122776 70 0 1 -49.93159,-34.49381 49.491188,35.122776 70 0 1 16.07763,-58.51919 49.491188,35.122776 70 0 1 49.93159,34.49379 z"
         inkscape:connector-curvature="0" />
    </g>
  </g>
  <g
     inkscape:label="Figure"
     inkscape:groupmode="layer"
     id="layer1"
     style="display:inline" />
</svg>
