<?xml version="1.0" encoding="UTF-8" standalone="no"?>
<!-- Created with Inkscape (http://www.inkscape.org/) -->

<svg
   xmlns:dc="http://purl.org/dc/elements/1.1/"
   xmlns:cc="http://creativecommons.org/ns#"
   xmlns:rdf="http://www.w3.org/1999/02/22-rdf-syntax-ns#"
   xmlns:svg="http://www.w3.org/2000/svg"
   xmlns="http://www.w3.org/2000/svg"
   xmlns:xlink="http://www.w3.org/1999/xlink"
   xmlns:sodipodi="http://sodipodi.sourceforge.net/DTD/sodipodi-0.dtd"
   xmlns:inkscape="http://www.inkscape.org/namespaces/inkscape"
   version="1.1"
   width="634"
   height="1136"
   id="svg2"
   xml:space="preserve"
   inkscape:version="0.48.2 r9819"
   sodipodi:docname="splash.svg"><sodipodi:namedview
     pagecolor="#ffffff"
     bordercolor="#666666"
     borderopacity="1"
     objecttolerance="10"
     gridtolerance="10"
     guidetolerance="10"
     inkscape:pageopacity="0"
     inkscape:pageshadow="2"
     inkscape:window-width="1268"
     inkscape:window-height="635"
     id="namedview3043"
     showgrid="false"
     inkscape:zoom="0.3959798"
     inkscape:cx="295.57909"
     inkscape:cy="634.29558"
     inkscape:window-x="0"
     inkscape:window-y="0"
     inkscape:window-maximized="0"
     inkscape:current-layer="g12" /><metadata
     id="metadata8"><rdf:RDF><cc:Work
         rdf:about=""><dc:format>image/svg+xml</dc:format><dc:type
           rdf:resource="http://purl.org/dc/dcmitype/StillImage" /><dc:title /></cc:Work></rdf:RDF></metadata><defs
     id="defs6"><linearGradient
       id="linearGradient3821"><stop
         style="stop-color:#39fc8e;stop-opacity:1;"
         offset="0"
         id="stop3823" /><stop
         style="stop-color:#36fffb;stop-opacity:1;"
         offset="1"
         id="stop3825" /></linearGradient><linearGradient
       inkscape:collect="always"
       xlink:href="#linearGradient3821"
       id="linearGradient3827"
       x1="7556.2598"
       y1="-137.76416"
       x2="7614.7085"
       y2="14682.523"
       gradientUnits="userSpaceOnUse"
       gradientTransform="matrix(0.25498005,0,0,0.45258958,4782.9983,4015.2554)" /></defs><g
     transform="matrix(1.25,0,0,-1.25,0,1136)"
     id="g10"><g
       transform="matrix(0.136878,0,0,0.136878,-654.68724,-549.60013)"
       id="g12"><path
         d="m 4782.9983,4015.2554 3740.5572,0 0,6639.4896 -3740.5572,0 0,-6639.4896 z"
         inkscape:connector-curvature="0"
         id="path14"
         style="fill:url(#linearGradient3827);fill-opacity:1;fill-rule:nonzero;stroke:none" /><g
         id="g4198"><path
           style="fill:#f9fbfb;fill-opacity:1;fill-rule:nonzero;stroke:none"
           id="path16"
           inkscape:connector-curvature="0"
           d="m 6351.462,7634.8607 c -120.7794,66.4231 -203.4692,201.2548 -203.4692,357.1987 0,131.553 58.8341,248.3593 149.7093,321.5113 -199.2856,-19.1613 -355.019,-181.7667 -355.019,-379.3894 0,-148.3897 87.6557,-276.4578 215.5706,-339.6165 C 5695.433,7461.1446 5683.352,6817.5194 5683.352,6817.5194 l 219.793,0 c 0,0 11.3211,676.9716 448.317,817.3413" /><path
           style="fill:#f9fbfb;fill-opacity:1;fill-rule:nonzero;stroke:none"
           id="path18"
           inkscape:connector-curvature="0"
           d="m 7142.9988,7594.5648 c 127.968,63.1587 215.5422,191.2268 215.5422,339.6165 0,197.6227 -155.6191,360.2281 -354.9189,379.3894 90.8627,-73.152 149.6621,-189.9583 149.6621,-321.5113 0,-155.9439 -82.7,-290.7756 -203.5283,-357.1987 437.0365,-140.3697 448.3944,-817.3413 448.3944,-817.3413 l 219.7419,0 c 0,0 -12.0522,643.6252 -474.8934,777.0454" /><path
           style="fill:#f9fbfb;fill-opacity:1;fill-rule:nonzero;stroke:none"
           id="path20"
           inkscape:connector-curvature="0"
           d="m 6957.218,6975.3896 -529.8524,0 57.1652,56.7097 520.6415,0 -47.9543,-56.7097 z m -634.7063,-44.0382 c -11.507,31.6202 -25.6042,82.9451 -57.3531,97.4488 0,0 42.2774,5.8873 61.3406,-9.5847 35.2461,60.3744 147.0373,87.8906 147.0373,87.8906 -77.3233,-51.6415 -116.5815,-89.8946 -151.0248,-175.7547 m 2.5882,263.6433 c 35.2482,60.3744 147.0394,87.8887 147.0394,87.8887 -77.3275,-51.6497 -116.5734,-89.9049 -151.0269,-175.7773 -11.507,31.6427 -25.6042,82.9574 -57.3511,97.4611 0,0 42.2774,5.8771 61.3386,-9.5725 m 0.012,175.7671 c 35.2359,60.3723 147.0373,87.8886 147.0373,87.8886 -77.3254,-51.6395 -116.5835,-89.8946 -151.0371,-175.767 -11.4947,31.6222 -25.592,82.9573 -57.3409,97.4631 0,0 42.2774,5.8751 61.3407,-9.5847 m 678.6611,-162.8832 -47.9444,-56.7117 -529.8626,0 57.1673,56.7117 520.6397,0 z m 0.011,175.767 -47.9565,-56.7117 -529.8503,0 57.1652,56.7117 520.6416,0 z M 6829.6268,7640.27 c 127.8351,68.4066 215.5011,206.944 215.5011,367.4943 0,227.8743 -176.6169,412.6847 -394.4264,412.6847 -217.8565,0 -394.5326,-184.8104 -394.5326,-412.6847 0,-160.5503 87.6211,-299.0877 215.5359,-367.4943 -462.8194,-144.3572 -474.8656,-840.8108 -474.8656,-840.8108 l 1307.629,0 c 0,0 -12.0728,696.4536 -474.8401,840.8108" /></g></g></g></svg>